<mxfile host="app.diagrams.net" modified="2023-11-03T18:26:59.694Z" agent="Mozilla/5.0 (Windows NT 10.0; Win64; x64; rv:109.0) Gecko/20100101 Firefox/119.0" etag="eA7rhgsidAl-hGsDvmHa" version="22.0.8" type="device" pages="2">
  <diagram id="FZimzOWbiY0pmrnXrLaN" name="DFD контекстная">
    <mxGraphModel dx="2261" dy="1951" grid="1" gridSize="10" guides="1" tooltips="1" connect="1" arrows="1" fold="1" page="1" pageScale="1" pageWidth="827" pageHeight="1169" math="0" shadow="0">
      <root>
        <mxCell id="0" />
        <mxCell id="1" parent="0" />
        <mxCell id="komNeLyyzliTDDAAMzvB-7" value="&lt;font style=&quot;font-size: 18px;&quot;&gt;Элементы для построения&amp;nbsp;&lt;span style=&quot;caret-color: rgb(0, 0, 0); text-align: start; text-size-adjust: auto;&quot; data-reactroot=&quot;&quot; class=&quot;notion-enable-hover&quot; data-token-index=&quot;0&quot;&gt;контекстной модели потоков данных&lt;/span&gt;&lt;/font&gt;" style="rounded=1;whiteSpace=wrap;html=1;verticalAlign=top;" parent="1" vertex="1">
          <mxGeometry x="10" y="-1120" width="470" height="80" as="geometry" />
        </mxCell>
        <mxCell id="komNeLyyzliTDDAAMzvB-3" value="Врач" style="html=1;dashed=0;whitespace=wrap;" parent="1" vertex="1">
          <mxGeometry x="-10" y="-820" width="100" height="80" as="geometry" />
        </mxCell>
        <mxCell id="komNeLyyzliTDDAAMzvB-4" value="Лаборатория" style="html=1;dashed=0;whitespace=wrap;" parent="1" vertex="1">
          <mxGeometry x="270" y="-510" width="160" height="50" as="geometry" />
        </mxCell>
        <mxCell id="komNeLyyzliTDDAAMzvB-5" value="Пациент" style="html=1;dashed=0;whitespace=wrap;" parent="1" vertex="1">
          <mxGeometry x="640" y="-850" width="170" height="140" as="geometry" />
        </mxCell>
        <mxCell id="rhUK0AfXt017CsrgmApv-1" value="0" style="swimlane;childLayout=stackLayout;horizontal=1;startSize=30;horizontalStack=0;rounded=1;fontSize=14;fontStyle=0;strokeWidth=1;resizeParent=0;resizeLast=1;shadow=0;dashed=0;align=center;fillColor=#FFFFFF;" parent="1" vertex="1">
          <mxGeometry x="260" y="-810" width="200" height="170" as="geometry" />
        </mxCell>
        <mxCell id="rhUK0AfXt017CsrgmApv-2" value="Приложение &quot;Вита&quot;" style="align=center;strokeColor=none;fillColor=none;spacingLeft=4;fontSize=12;verticalAlign=middle;resizable=0;rotatable=0;part=1;" parent="rhUK0AfXt017CsrgmApv-1" vertex="1">
          <mxGeometry y="30" width="200" height="140" as="geometry" />
        </mxCell>
        <mxCell id="OCnl1x9CvZUZdCjGhDZ1-1" value="" style="endArrow=classic;html=1;rounded=0;entryX=0;entryY=0;entryDx=0;entryDy=0;exitX=1;exitY=0.5;exitDx=0;exitDy=0;" parent="1" source="komNeLyyzliTDDAAMzvB-3" target="rhUK0AfXt017CsrgmApv-2" edge="1">
          <mxGeometry width="50" height="50" relative="1" as="geometry">
            <mxPoint x="80" y="-680" as="sourcePoint" />
            <mxPoint x="200" y="-820" as="targetPoint" />
            <Array as="points" />
          </mxGeometry>
        </mxCell>
        <mxCell id="OCnl1x9CvZUZdCjGhDZ1-2" value="Назначение на обследование" style="edgeLabel;html=1;align=center;verticalAlign=middle;resizable=0;points=[];" parent="OCnl1x9CvZUZdCjGhDZ1-1" vertex="1" connectable="0">
          <mxGeometry x="-0.0554" y="-2" relative="1" as="geometry">
            <mxPoint y="-21" as="offset" />
          </mxGeometry>
        </mxCell>
        <mxCell id="OCnl1x9CvZUZdCjGhDZ1-3" value="" style="endArrow=classic;html=1;rounded=0;entryX=0;entryY=0.5;entryDx=0;entryDy=0;exitX=1;exitY=0;exitDx=0;exitDy=0;" parent="1" source="rhUK0AfXt017CsrgmApv-2" target="komNeLyyzliTDDAAMzvB-5" edge="1">
          <mxGeometry width="50" height="50" relative="1" as="geometry">
            <mxPoint x="520" y="-670" as="sourcePoint" />
            <mxPoint x="750" y="-670" as="targetPoint" />
            <Array as="points" />
          </mxGeometry>
        </mxCell>
        <mxCell id="OCnl1x9CvZUZdCjGhDZ1-4" value="Назначение на обследование" style="edgeLabel;html=1;align=center;verticalAlign=middle;resizable=0;points=[];" parent="OCnl1x9CvZUZdCjGhDZ1-3" vertex="1" connectable="0">
          <mxGeometry x="-0.0554" y="-2" relative="1" as="geometry">
            <mxPoint y="-10" as="offset" />
          </mxGeometry>
        </mxCell>
        <mxCell id="OCnl1x9CvZUZdCjGhDZ1-5" value="" style="endArrow=classic;html=1;rounded=0;entryX=0.647;entryY=1.003;entryDx=0;entryDy=0;exitX=0.75;exitY=0;exitDx=0;exitDy=0;entryPerimeter=0;" parent="1" source="komNeLyyzliTDDAAMzvB-4" target="rhUK0AfXt017CsrgmApv-2" edge="1">
          <mxGeometry width="50" height="50" relative="1" as="geometry">
            <mxPoint x="375" y="-584" as="sourcePoint" />
            <mxPoint x="425" y="-634" as="targetPoint" />
          </mxGeometry>
        </mxCell>
        <mxCell id="OCnl1x9CvZUZdCjGhDZ1-6" value="Результаты анализов" style="edgeLabel;html=1;align=center;verticalAlign=middle;resizable=0;points=[];" parent="OCnl1x9CvZUZdCjGhDZ1-5" vertex="1" connectable="0">
          <mxGeometry x="-0.1787" y="1" relative="1" as="geometry">
            <mxPoint x="1" y="-29" as="offset" />
          </mxGeometry>
        </mxCell>
        <mxCell id="OCnl1x9CvZUZdCjGhDZ1-7" value="" style="endArrow=classic;html=1;rounded=0;exitX=0.25;exitY=1;exitDx=0;exitDy=0;entryX=0;entryY=0.75;entryDx=0;entryDy=0;" parent="1" source="komNeLyyzliTDDAAMzvB-3" target="rhUK0AfXt017CsrgmApv-2" edge="1">
          <mxGeometry width="50" height="50" relative="1" as="geometry">
            <mxPoint x="230" y="-710" as="sourcePoint" />
            <mxPoint x="280" y="-760" as="targetPoint" />
            <Array as="points">
              <mxPoint x="15" y="-675" />
            </Array>
          </mxGeometry>
        </mxCell>
        <mxCell id="OCnl1x9CvZUZdCjGhDZ1-8" value="Назначение на медикаментозное лечение" style="edgeLabel;html=1;align=center;verticalAlign=middle;resizable=0;points=[];" parent="OCnl1x9CvZUZdCjGhDZ1-7" vertex="1" connectable="0">
          <mxGeometry x="-0.3138" y="1" relative="1" as="geometry">
            <mxPoint x="84" y="-9" as="offset" />
          </mxGeometry>
        </mxCell>
        <mxCell id="Kjr1ZZkmBq8EUvhBOmFB-1" value="" style="endArrow=classic;html=1;rounded=0;entryX=0.761;entryY=-0.003;entryDx=0;entryDy=0;exitX=0.5;exitY=0;exitDx=0;exitDy=0;entryPerimeter=0;" parent="1" source="rhUK0AfXt017CsrgmApv-1" target="komNeLyyzliTDDAAMzvB-5" edge="1">
          <mxGeometry width="50" height="50" relative="1" as="geometry">
            <mxPoint x="420" y="-970" as="sourcePoint" />
            <mxPoint x="775" y="-840" as="targetPoint" />
            <Array as="points">
              <mxPoint x="360" y="-940" />
              <mxPoint x="770" y="-940" />
            </Array>
          </mxGeometry>
        </mxCell>
        <mxCell id="Kjr1ZZkmBq8EUvhBOmFB-2" value="Назначение на медикаментозное лечение" style="edgeLabel;html=1;align=center;verticalAlign=middle;resizable=0;points=[];" parent="Kjr1ZZkmBq8EUvhBOmFB-1" vertex="1" connectable="0">
          <mxGeometry x="-0.3138" y="1" relative="1" as="geometry">
            <mxPoint x="67" y="-9" as="offset" />
          </mxGeometry>
        </mxCell>
        <mxCell id="Kjr1ZZkmBq8EUvhBOmFB-5" value="" style="endArrow=classic;html=1;rounded=0;entryX=0;entryY=0.75;entryDx=0;entryDy=0;exitX=1;exitY=0.25;exitDx=0;exitDy=0;" parent="1" source="rhUK0AfXt017CsrgmApv-2" target="komNeLyyzliTDDAAMzvB-5" edge="1">
          <mxGeometry width="50" height="50" relative="1" as="geometry">
            <mxPoint x="640" y="-610" as="sourcePoint" />
            <mxPoint x="640" y="-710" as="targetPoint" />
            <Array as="points" />
          </mxGeometry>
        </mxCell>
        <mxCell id="Kjr1ZZkmBq8EUvhBOmFB-6" value="Результаты анализов" style="edgeLabel;html=1;align=center;verticalAlign=middle;resizable=0;points=[];" parent="Kjr1ZZkmBq8EUvhBOmFB-5" vertex="1" connectable="0">
          <mxGeometry x="-0.1787" y="1" relative="1" as="geometry">
            <mxPoint x="1" y="-9" as="offset" />
          </mxGeometry>
        </mxCell>
        <mxCell id="Kjr1ZZkmBq8EUvhBOmFB-7" value="" style="endArrow=classic;html=1;rounded=0;entryX=0.254;entryY=0;entryDx=0;entryDy=0;exitX=0.75;exitY=0;exitDx=0;exitDy=0;entryPerimeter=0;" parent="1" source="rhUK0AfXt017CsrgmApv-1" target="komNeLyyzliTDDAAMzvB-5" edge="1">
          <mxGeometry width="50" height="50" relative="1" as="geometry">
            <mxPoint x="500" y="-790" as="sourcePoint" />
            <mxPoint x="680" y="-790" as="targetPoint" />
            <Array as="points">
              <mxPoint x="410" y="-880" />
              <mxPoint x="683" y="-880" />
            </Array>
          </mxGeometry>
        </mxCell>
        <mxCell id="Kjr1ZZkmBq8EUvhBOmFB-8" value="Расписание процедурного кабинета" style="edgeLabel;html=1;align=center;verticalAlign=middle;resizable=0;points=[];" parent="Kjr1ZZkmBq8EUvhBOmFB-7" vertex="1" connectable="0">
          <mxGeometry x="-0.0554" y="-2" relative="1" as="geometry">
            <mxPoint x="16" y="-10" as="offset" />
          </mxGeometry>
        </mxCell>
        <mxCell id="Kjr1ZZkmBq8EUvhBOmFB-9" value="" style="endArrow=classic;html=1;rounded=0;entryX=0.473;entryY=0.995;entryDx=0;entryDy=0;exitX=1;exitY=0.75;exitDx=0;exitDy=0;entryPerimeter=0;" parent="1" source="rhUK0AfXt017CsrgmApv-2" target="komNeLyyzliTDDAAMzvB-5" edge="1">
          <mxGeometry width="50" height="50" relative="1" as="geometry">
            <mxPoint x="460" y="-665" as="sourcePoint" />
            <mxPoint x="725" y="-700" as="targetPoint" />
            <Array as="points">
              <mxPoint x="720" y="-675" />
            </Array>
          </mxGeometry>
        </mxCell>
        <mxCell id="Kjr1ZZkmBq8EUvhBOmFB-10" value="Уведомление о результатах анализов" style="edgeLabel;html=1;align=center;verticalAlign=middle;resizable=0;points=[];" parent="Kjr1ZZkmBq8EUvhBOmFB-9" vertex="1" connectable="0">
          <mxGeometry x="-0.2852" y="-2" relative="1" as="geometry">
            <mxPoint x="15" y="-17" as="offset" />
          </mxGeometry>
        </mxCell>
        <mxCell id="Kjr1ZZkmBq8EUvhBOmFB-11" value="" style="endArrow=classic;html=1;rounded=0;exitX=-0.002;exitY=0.144;exitDx=0;exitDy=0;exitPerimeter=0;entryX=0.901;entryY=-0.001;entryDx=0;entryDy=0;entryPerimeter=0;" parent="1" source="komNeLyyzliTDDAAMzvB-5" target="rhUK0AfXt017CsrgmApv-1" edge="1">
          <mxGeometry width="50" height="50" relative="1" as="geometry">
            <mxPoint x="610" y="-830" as="sourcePoint" />
            <mxPoint x="470" y="-830" as="targetPoint" />
            <Array as="points">
              <mxPoint x="440" y="-830" />
            </Array>
          </mxGeometry>
        </mxCell>
        <mxCell id="Kjr1ZZkmBq8EUvhBOmFB-12" value="Запрос на расписание процедурного кабинета" style="edgeLabel;html=1;align=center;verticalAlign=middle;resizable=0;points=[];fontSize=9;" parent="Kjr1ZZkmBq8EUvhBOmFB-11" vertex="1" connectable="0">
          <mxGeometry x="0.2295" relative="1" as="geometry">
            <mxPoint x="25" y="-10" as="offset" />
          </mxGeometry>
        </mxCell>
      </root>
    </mxGraphModel>
  </diagram>
  <diagram id="5hfhekeH1kYWlCb4wukP" name="DFD логические">
    <mxGraphModel dx="2022" dy="1821" grid="1" gridSize="10" guides="1" tooltips="1" connect="1" arrows="1" fold="1" page="1" pageScale="1" pageWidth="827" pageHeight="1169" math="0" shadow="0">
      <root>
        <mxCell id="0" />
        <mxCell id="1" parent="0" />
        <mxCell id="a9Sl7O8uez9xCAdCzFx1-1" value="&lt;font style=&quot;font-size: 20px;&quot;&gt;Элементы для построения л&lt;span style=&quot;caret-color: rgb(0, 0, 0); text-align: start; text-size-adjust: auto;&quot; data-reactroot=&quot;&quot; class=&quot;notion-enable-hover&quot; data-token-index=&quot;0&quot;&gt;огических моделей потоков данных уровня 1&lt;/span&gt;&lt;/font&gt;" style="rounded=1;whiteSpace=wrap;html=1;verticalAlign=top;" parent="1" vertex="1">
          <mxGeometry x="10" y="-1120" width="800" height="80" as="geometry" />
        </mxCell>
        <mxCell id="a9Sl7O8uez9xCAdCzFx1-50" value="Пациент" style="html=1;fontSize=11;" parent="1" vertex="1">
          <mxGeometry x="330" y="-950" width="150" height="50" as="geometry" />
        </mxCell>
        <mxCell id="a9Sl7O8uez9xCAdCzFx1-51" value="Врач" style="html=1;fontSize=11;" parent="1" vertex="1">
          <mxGeometry x="30" y="-700" width="110" height="50" as="geometry" />
        </mxCell>
        <mxCell id="a9Sl7O8uez9xCAdCzFx1-52" value="Пациент" style="html=1;fontSize=11;" parent="1" vertex="1">
          <mxGeometry x="1400" y="-780" width="110" height="50" as="geometry" />
        </mxCell>
        <mxCell id="a9Sl7O8uez9xCAdCzFx1-53" value="Врач" style="html=1;fontSize=11;" parent="1" vertex="1">
          <mxGeometry x="1060" y="-960" width="110" height="50" as="geometry" />
        </mxCell>
        <mxCell id="a9Sl7O8uez9xCAdCzFx1-55" value="Лаборатория" style="html=1;fontSize=11;" parent="1" vertex="1">
          <mxGeometry x="350" y="-510" width="110" height="50" as="geometry" />
        </mxCell>
        <mxCell id="JQqJk8gsrpiBfC45wu2H-1" value="&lt;h1&gt;&lt;font style=&quot;font-size: 40px;&quot;&gt;Задание&lt;/font&gt;&lt;/h1&gt;&lt;font style=&quot;font-size: 20px;&quot;&gt;Составьте две логические модели потоков данных 1 уровня из представленных элементов. По одной для каждого процесса.&lt;br&gt;&lt;/font&gt;&lt;p style=&quot;font-size: 20px;&quot;&gt;&lt;font style=&quot;font-size: 20px;&quot;&gt;Как выполнить задание:&lt;/font&gt;&lt;/p&gt;&lt;span style=&quot;font-size: 20px;&quot;&gt;1. Просмотрите MVP, которое вы составили, для изменений которые будут производиться в рамках этих доработок вам необходимо составить две логические модели потоков данных.&amp;nbsp;&lt;/span&gt;&lt;p style=&quot;font-size: 20px;&quot;&gt;2. Просмотрите доступные элементы (процесс и внешние сущности) для составления модели.&lt;span style=&quot;background-color: initial;&quot;&gt;&amp;nbsp;Корректно расставьте, соедините элементы потоками данных и подпишите получившиеся потоки.&amp;nbsp;&lt;/span&gt;&lt;/p&gt;&lt;p style=&quot;font-size: 20px;&quot;&gt;3. Добавьте в модели потоков данных к каждому процессу недостающие хранилища данных.&lt;/p&gt;&lt;p style=&quot;font-size: 20px;&quot;&gt;&lt;font style=&quot;font-size: 20px;&quot;&gt;4. Если вам не хватает информации в задании, то вы можете ее самостоятельно добавить в виде допущения&lt;/font&gt;&lt;/p&gt;&lt;p style=&quot;font-size: 20px;&quot;&gt;&lt;i&gt;Помните, что вы всегда можете оставить дополнительную информацию со своими размышлениями ревьюеру в виде пометок. Просто возьмите одну из карточек ниже.&amp;nbsp;&lt;/i&gt;&lt;/p&gt;&lt;p style=&quot;font-size: 20px;&quot;&gt;&lt;font style=&quot;font-size: 20px;&quot;&gt;5. Когда модели потоков данных будут готовы сохраните получившийся файл в формате .drawio, он понадобиться вам в части &quot;Ревью&quot;&lt;/font&gt;&lt;/p&gt;" style="text;html=1;strokeColor=#82b366;fillColor=#d5e8d4;spacing=5;spacingTop=-20;whiteSpace=wrap;overflow=hidden;rounded=0;fontSize=16;" parent="1" vertex="1">
          <mxGeometry x="-770" y="-1120" width="740" height="660" as="geometry" />
        </mxCell>
        <mxCell id="JQqJk8gsrpiBfC45wu2H-2" value="&lt;h1 style=&quot;font-size: 20px;&quot;&gt;&lt;font style=&quot;font-size: 20px;&quot;&gt;Заметка для ревьюера&lt;/font&gt;&lt;/h1&gt;&lt;p style=&quot;font-size: 20px;&quot;&gt;&lt;font style=&quot;font-size: 20px;&quot;&gt;Текст заметки&lt;/font&gt;&lt;/p&gt;" style="text;html=1;strokeColor=#d6b656;fillColor=#fff2cc;spacing=5;spacingTop=-20;whiteSpace=wrap;overflow=hidden;rounded=0;fontSize=20;" parent="1" vertex="1">
          <mxGeometry x="-770" y="-410" width="370" height="170" as="geometry" />
        </mxCell>
        <mxCell id="JQqJk8gsrpiBfC45wu2H-3" value="&lt;h1 style=&quot;font-size: 20px;&quot;&gt;&lt;font style=&quot;font-size: 20px;&quot;&gt;Заметка для ревьюера&lt;/font&gt;&lt;/h1&gt;&lt;p style=&quot;font-size: 20px;&quot;&gt;&lt;font style=&quot;font-size: 20px;&quot;&gt;Текст заметки&lt;/font&gt;&lt;/p&gt;" style="text;html=1;strokeColor=#d6b656;fillColor=#fff2cc;spacing=5;spacingTop=-20;whiteSpace=wrap;overflow=hidden;rounded=0;fontSize=20;" parent="1" vertex="1">
          <mxGeometry x="-760" y="-400" width="370" height="170" as="geometry" />
        </mxCell>
        <mxCell id="JQqJk8gsrpiBfC45wu2H-4" value="&lt;h1 style=&quot;font-size: 20px;&quot;&gt;&lt;font style=&quot;font-size: 20px;&quot;&gt;Заметка для ревьюера&lt;/font&gt;&lt;/h1&gt;&lt;p style=&quot;font-size: 20px;&quot;&gt;&lt;font style=&quot;font-size: 20px;&quot;&gt;Текст заметки&lt;/font&gt;&lt;/p&gt;" style="text;html=1;strokeColor=#d6b656;fillColor=#fff2cc;spacing=5;spacingTop=-20;whiteSpace=wrap;overflow=hidden;rounded=0;fontSize=20;" parent="1" vertex="1">
          <mxGeometry x="-750" y="-390" width="370" height="170" as="geometry" />
        </mxCell>
        <mxCell id="JQqJk8gsrpiBfC45wu2H-5" value="&lt;h1 style=&quot;font-size: 20px;&quot;&gt;&lt;font style=&quot;font-size: 20px;&quot;&gt;Заметка для ревьюера&lt;/font&gt;&lt;/h1&gt;&lt;p style=&quot;font-size: 20px;&quot;&gt;&lt;font style=&quot;font-size: 20px;&quot;&gt;Текст заметки&lt;/font&gt;&lt;/p&gt;" style="text;html=1;strokeColor=#d6b656;fillColor=#fff2cc;spacing=5;spacingTop=-20;whiteSpace=wrap;overflow=hidden;rounded=0;fontSize=20;" parent="1" vertex="1">
          <mxGeometry x="-740" y="-380" width="370" height="170" as="geometry" />
        </mxCell>
        <mxCell id="JQqJk8gsrpiBfC45wu2H-6" value="&lt;h1 style=&quot;font-size: 20px;&quot;&gt;&lt;font style=&quot;font-size: 20px;&quot;&gt;Заметка для ревьюера&lt;/font&gt;&lt;/h1&gt;&lt;p style=&quot;font-size: 20px;&quot;&gt;&lt;font style=&quot;font-size: 20px;&quot;&gt;Андрей привет! Не устану благодарить тебя за развернутые комментарии, они очень помогают - спасибо БОЛЬШОЕ!!! &lt;br&gt;&lt;/font&gt;&lt;/p&gt;&lt;p style=&quot;font-size: 20px;&quot;&gt;&lt;font style=&quot;font-size: 20px;&quot;&gt;Если честно не знал что на DFD отмечаем только те потоки, которые проходят через приложение, поэтому и решил отправить поток анализов в лабораторию как бы это не звучало:) Теперь буду знать. &lt;br&gt;&lt;/font&gt;&lt;/p&gt;&lt;p style=&quot;font-size: 20px;&quot;&gt;&lt;font style=&quot;font-size: 20px;&quot;&gt;Пока что у меня проблемы с хранилищами данных, можешь пожалуйста подсказать на этой диаграмме почему у нас отдельно хранилище данных для результатов анализов и отдельно для пациентов. Ведь результаты анализов привязаны к пациентам?&lt;br&gt;&lt;/font&gt;&lt;/p&gt;&lt;p style=&quot;font-size: 20px;&quot;&gt;&lt;font style=&quot;font-size: 20px;&quot;&gt;&lt;br&gt;&lt;/font&gt;&lt;/p&gt;" style="text;html=1;strokeColor=#d6b656;fillColor=#fff2cc;spacing=5;spacingTop=-20;whiteSpace=wrap;overflow=hidden;rounded=0;fontSize=20;" parent="1" vertex="1">
          <mxGeometry x="10" y="-370" width="690" height="330" as="geometry" />
        </mxCell>
        <mxCell id="TyFQIvKSNbhwDLeUT2OL-1" value="1" style="swimlane;childLayout=stackLayout;horizontal=1;startSize=30;horizontalStack=0;rounded=1;fontSize=14;fontStyle=0;strokeWidth=1;resizeParent=0;resizeLast=1;shadow=0;dashed=0;align=center;fillColor=#FFFFFF;" parent="1" vertex="1">
          <mxGeometry x="330" y="-750" width="150" height="110" as="geometry" />
        </mxCell>
        <mxCell id="TyFQIvKSNbhwDLeUT2OL-2" value="Пройти обследование" style="align=center;strokeColor=none;fillColor=none;spacingLeft=4;fontSize=12;verticalAlign=middle;resizable=0;rotatable=0;part=1;" parent="TyFQIvKSNbhwDLeUT2OL-1" vertex="1">
          <mxGeometry y="30" width="150" height="80" as="geometry" />
        </mxCell>
        <mxCell id="jfRJq12P8PdNFq7zpwv4-1" value="2" style="swimlane;childLayout=stackLayout;horizontal=1;startSize=30;horizontalStack=0;rounded=1;fontSize=14;fontStyle=0;strokeWidth=1;resizeParent=0;resizeLast=1;shadow=0;dashed=0;align=center;fillColor=#FFFFFF;" parent="1" vertex="1">
          <mxGeometry x="1040" y="-800" width="150" height="110" as="geometry" />
        </mxCell>
        <mxCell id="jfRJq12P8PdNFq7zpwv4-2" value="Пройти&#xa;медикаментозное &#xa;лечение" style="align=center;strokeColor=none;fillColor=none;spacingLeft=4;fontSize=12;verticalAlign=middle;resizable=0;rotatable=0;part=1;" parent="jfRJq12P8PdNFq7zpwv4-1" vertex="1">
          <mxGeometry y="30" width="150" height="80" as="geometry" />
        </mxCell>
        <mxCell id="sgHCkmttDaiDP5O6KN9Q-2" value="" style="endArrow=classic;html=1;rounded=0;entryX=0.731;entryY=0.987;entryDx=0;entryDy=0;exitX=0.822;exitY=0.006;exitDx=0;exitDy=0;exitPerimeter=0;entryPerimeter=0;" parent="1" source="a9Sl7O8uez9xCAdCzFx1-55" target="TyFQIvKSNbhwDLeUT2OL-2" edge="1">
          <mxGeometry width="50" height="50" relative="1" as="geometry">
            <mxPoint x="120" y="-650" as="sourcePoint" />
            <mxPoint x="170" y="-700" as="targetPoint" />
          </mxGeometry>
        </mxCell>
        <mxCell id="6sSpIcbSItreYqG8uGo2-2" value="Результаты анализов" style="edgeLabel;html=1;align=center;verticalAlign=middle;resizable=0;points=[];" parent="sgHCkmttDaiDP5O6KN9Q-2" vertex="1" connectable="0">
          <mxGeometry x="0.3141" relative="1" as="geometry">
            <mxPoint as="offset" />
          </mxGeometry>
        </mxCell>
        <mxCell id="6sSpIcbSItreYqG8uGo2-3" value="" style="endArrow=classic;html=1;rounded=0;exitX=0.75;exitY=0;exitDx=0;exitDy=0;entryX=0.75;entryY=1;entryDx=0;entryDy=0;" parent="1" source="TyFQIvKSNbhwDLeUT2OL-1" target="a9Sl7O8uez9xCAdCzFx1-50" edge="1">
          <mxGeometry width="50" height="50" relative="1" as="geometry">
            <mxPoint x="440" y="-759" as="sourcePoint" />
            <mxPoint x="440" y="-890" as="targetPoint" />
          </mxGeometry>
        </mxCell>
        <mxCell id="6sSpIcbSItreYqG8uGo2-4" value="Результаты анализов" style="edgeLabel;html=1;align=center;verticalAlign=middle;resizable=0;points=[];" parent="6sSpIcbSItreYqG8uGo2-3" vertex="1" connectable="0">
          <mxGeometry x="0.3141" relative="1" as="geometry">
            <mxPoint as="offset" />
          </mxGeometry>
        </mxCell>
        <mxCell id="6sSpIcbSItreYqG8uGo2-5" value="D1&amp;nbsp;&amp;nbsp;&amp;nbsp;&amp;nbsp; Пациенты" style="html=1;dashed=0;whiteSpace=wrap;shape=mxgraph.dfd.dataStoreID;align=left;spacingLeft=3;points=[[0,0],[0.5,0],[1,0],[0,0.5],[1,0.5],[0,1],[0.5,1],[1,1]];" parent="1" vertex="1">
          <mxGeometry x="560" y="-584" width="100" height="30" as="geometry" />
        </mxCell>
        <mxCell id="YEdPmE0j_7vEIvx6Q557-1" value="" style="endArrow=classic;html=1;rounded=0;entryX=0;entryY=0.75;entryDx=0;entryDy=0;exitX=1;exitY=0.792;exitDx=0;exitDy=0;exitPerimeter=0;" parent="1" source="a9Sl7O8uez9xCAdCzFx1-51" target="TyFQIvKSNbhwDLeUT2OL-2" edge="1">
          <mxGeometry width="50" height="50" relative="1" as="geometry">
            <mxPoint x="150" y="-710" as="sourcePoint" />
            <mxPoint x="320" y="-710" as="targetPoint" />
            <Array as="points" />
          </mxGeometry>
        </mxCell>
        <mxCell id="YEdPmE0j_7vEIvx6Q557-2" value="Назначение на обследование" style="edgeLabel;html=1;align=center;verticalAlign=middle;resizable=0;points=[];" parent="YEdPmE0j_7vEIvx6Q557-1" vertex="1" connectable="0">
          <mxGeometry x="-0.0554" y="-2" relative="1" as="geometry">
            <mxPoint y="-14" as="offset" />
          </mxGeometry>
        </mxCell>
        <mxCell id="YEdPmE0j_7vEIvx6Q557-3" value="" style="endArrow=classic;html=1;rounded=0;entryX=0.204;entryY=1.004;entryDx=0;entryDy=0;exitX=0.205;exitY=-0.005;exitDx=0;exitDy=0;entryPerimeter=0;exitPerimeter=0;" parent="1" source="TyFQIvKSNbhwDLeUT2OL-1" target="a9Sl7O8uez9xCAdCzFx1-50" edge="1">
          <mxGeometry width="50" height="50" relative="1" as="geometry">
            <mxPoint x="160" y="-819" as="sourcePoint" />
            <mxPoint x="350" y="-820" as="targetPoint" />
            <Array as="points" />
          </mxGeometry>
        </mxCell>
        <mxCell id="YEdPmE0j_7vEIvx6Q557-4" value="Назначение на обследование" style="edgeLabel;html=1;align=center;verticalAlign=middle;resizable=0;points=[];" parent="YEdPmE0j_7vEIvx6Q557-3" vertex="1" connectable="0">
          <mxGeometry x="-0.0554" y="-2" relative="1" as="geometry">
            <mxPoint y="31" as="offset" />
          </mxGeometry>
        </mxCell>
        <mxCell id="kJoBCT37pH-oT-7Mn_hm-1" value="" style="endArrow=classic;html=1;rounded=0;exitX=0;exitY=0.5;exitDx=0;exitDy=0;entryX=0.003;entryY=0.164;entryDx=0;entryDy=0;entryPerimeter=0;" parent="1" source="a9Sl7O8uez9xCAdCzFx1-50" target="TyFQIvKSNbhwDLeUT2OL-1" edge="1">
          <mxGeometry width="50" height="50" relative="1" as="geometry">
            <mxPoint x="330" y="-880" as="sourcePoint" />
            <mxPoint x="130" y="-860" as="targetPoint" />
            <Array as="points">
              <mxPoint x="240" y="-925" />
              <mxPoint x="240" y="-732" />
            </Array>
          </mxGeometry>
        </mxCell>
        <mxCell id="kJoBCT37pH-oT-7Mn_hm-2" value="&lt;div&gt;Запрос на расписание&lt;/div&gt;&lt;div&gt;&amp;nbsp;процедурного кабинета&lt;/div&gt;" style="edgeLabel;html=1;align=center;verticalAlign=middle;resizable=0;points=[];fontSize=11;" parent="kJoBCT37pH-oT-7Mn_hm-1" vertex="1" connectable="0">
          <mxGeometry x="0.2295" relative="1" as="geometry">
            <mxPoint x="10" y="-86" as="offset" />
          </mxGeometry>
        </mxCell>
        <mxCell id="R9SUXJDULyD0W--8JSG_-1" value="" style="endArrow=classic;html=1;rounded=0;entryX=1;entryY=0.25;entryDx=0;entryDy=0;exitX=1;exitY=0;exitDx=0;exitDy=0;" parent="1" source="TyFQIvKSNbhwDLeUT2OL-2" target="a9Sl7O8uez9xCAdCzFx1-50" edge="1">
          <mxGeometry width="50" height="50" relative="1" as="geometry">
            <mxPoint x="530" y="-700" as="sourcePoint" />
            <mxPoint x="803" y="-740" as="targetPoint" />
            <Array as="points">
              <mxPoint x="560" y="-720" />
              <mxPoint x="560" y="-938" />
            </Array>
          </mxGeometry>
        </mxCell>
        <mxCell id="R9SUXJDULyD0W--8JSG_-2" value="Расписание процедурного кабинета" style="edgeLabel;html=1;align=center;verticalAlign=middle;resizable=0;points=[];" parent="R9SUXJDULyD0W--8JSG_-1" vertex="1" connectable="0">
          <mxGeometry x="-0.0554" y="-2" relative="1" as="geometry">
            <mxPoint x="16" y="9" as="offset" />
          </mxGeometry>
        </mxCell>
        <mxCell id="R9SUXJDULyD0W--8JSG_-3" value="" style="endArrow=classic;html=1;rounded=0;exitX=0.5;exitY=0;exitDx=0;exitDy=0;entryX=1;entryY=0.75;entryDx=0;entryDy=0;endFill=1;startArrow=classic;startFill=1;" parent="1" source="6sSpIcbSItreYqG8uGo2-5" target="TyFQIvKSNbhwDLeUT2OL-2" edge="1">
          <mxGeometry width="50" height="50" relative="1" as="geometry">
            <mxPoint x="280" y="-620" as="sourcePoint" />
            <mxPoint x="330" y="-670" as="targetPoint" />
            <Array as="points">
              <mxPoint x="610" y="-660" />
            </Array>
          </mxGeometry>
        </mxCell>
        <mxCell id="1Z9idSmV3hKvfnXWPtIn-1" value="Пациенты" style="edgeLabel;html=1;align=center;verticalAlign=middle;resizable=0;points=[];" parent="R9SUXJDULyD0W--8JSG_-3" vertex="1" connectable="0">
          <mxGeometry x="0.2023" y="1" relative="1" as="geometry">
            <mxPoint as="offset" />
          </mxGeometry>
        </mxCell>
        <mxCell id="LMG25uWPaTVru536X1eV-1" value="" style="endArrow=classic;html=1;rounded=0;entryX=0.5;entryY=0;entryDx=0;entryDy=0;exitX=1.001;exitY=0.371;exitDx=0;exitDy=0;exitPerimeter=0;" parent="1" source="TyFQIvKSNbhwDLeUT2OL-2" target="a9Sl7O8uez9xCAdCzFx1-50" edge="1">
          <mxGeometry width="50" height="50" relative="1" as="geometry">
            <mxPoint x="610" y="-750" as="sourcePoint" />
            <mxPoint x="870" y="-786" as="targetPoint" />
            <Array as="points">
              <mxPoint x="720" y="-690" />
              <mxPoint x="720" y="-1000" />
              <mxPoint x="405" y="-1000" />
            </Array>
          </mxGeometry>
        </mxCell>
        <mxCell id="LMG25uWPaTVru536X1eV-2" value="Уведомление о результатах анализов" style="edgeLabel;html=1;align=center;verticalAlign=middle;resizable=0;points=[];" parent="LMG25uWPaTVru536X1eV-1" vertex="1" connectable="0">
          <mxGeometry x="-0.2852" y="-2" relative="1" as="geometry">
            <mxPoint x="-162" y="-223" as="offset" />
          </mxGeometry>
        </mxCell>
        <mxCell id="S4jkCtbscwq6oH9cz4Ta-1" value="D1&amp;nbsp;&amp;nbsp;&amp;nbsp;&amp;nbsp; Пациенты" style="html=1;dashed=0;whiteSpace=wrap;shape=mxgraph.dfd.dataStoreID;align=left;spacingLeft=3;points=[[0,0],[0.5,0],[1,0],[0,0.5],[1,0.5],[0,1],[0.5,1],[1,1]];" parent="1" vertex="1">
          <mxGeometry x="1290" y="-614" width="100" height="30" as="geometry" />
        </mxCell>
        <mxCell id="S4jkCtbscwq6oH9cz4Ta-3" value="" style="endArrow=classic;html=1;rounded=0;entryX=1;entryY=0.75;entryDx=0;entryDy=0;endFill=1;startArrow=classic;startFill=1;exitX=0.5;exitY=0;exitDx=0;exitDy=0;" parent="1" source="S4jkCtbscwq6oH9cz4Ta-1" target="jfRJq12P8PdNFq7zpwv4-2" edge="1">
          <mxGeometry width="50" height="50" relative="1" as="geometry">
            <mxPoint x="1340" y="-650" as="sourcePoint" />
            <mxPoint x="1210" y="-616" as="targetPoint" />
            <Array as="points">
              <mxPoint x="1340" y="-710" />
            </Array>
          </mxGeometry>
        </mxCell>
        <mxCell id="1Z9idSmV3hKvfnXWPtIn-2" value="Пациенты" style="edgeLabel;html=1;align=center;verticalAlign=middle;resizable=0;points=[];" parent="S4jkCtbscwq6oH9cz4Ta-3" vertex="1" connectable="0">
          <mxGeometry x="0.2846" relative="1" as="geometry">
            <mxPoint as="offset" />
          </mxGeometry>
        </mxCell>
        <mxCell id="S4jkCtbscwq6oH9cz4Ta-4" value="" style="endArrow=classic;html=1;rounded=0;exitX=0.5;exitY=1;exitDx=0;exitDy=0;entryX=0.5;entryY=0;entryDx=0;entryDy=0;" parent="1" source="a9Sl7O8uez9xCAdCzFx1-53" target="jfRJq12P8PdNFq7zpwv4-1" edge="1">
          <mxGeometry width="50" height="50" relative="1" as="geometry">
            <mxPoint x="1240" y="-700" as="sourcePoint" />
            <mxPoint x="1115" y="-810" as="targetPoint" />
          </mxGeometry>
        </mxCell>
        <mxCell id="S4jkCtbscwq6oH9cz4Ta-5" value="Назначение на медикаментозное&lt;br&gt;лечение" style="edgeLabel;html=1;align=center;verticalAlign=middle;resizable=0;points=[];" parent="S4jkCtbscwq6oH9cz4Ta-4" vertex="1" connectable="0">
          <mxGeometry x="-0.2188" y="1" relative="1" as="geometry">
            <mxPoint as="offset" />
          </mxGeometry>
        </mxCell>
        <mxCell id="S4jkCtbscwq6oH9cz4Ta-6" value="" style="endArrow=classic;html=1;rounded=0;exitX=1.001;exitY=0.173;exitDx=0;exitDy=0;entryX=0;entryY=0.5;entryDx=0;entryDy=0;exitPerimeter=0;" parent="1" source="jfRJq12P8PdNFq7zpwv4-2" target="a9Sl7O8uez9xCAdCzFx1-52" edge="1">
          <mxGeometry width="50" height="50" relative="1" as="geometry">
            <mxPoint x="1125" y="-900" as="sourcePoint" />
            <mxPoint x="1125" y="-790" as="targetPoint" />
          </mxGeometry>
        </mxCell>
        <mxCell id="S4jkCtbscwq6oH9cz4Ta-7" value="Назначение на медикаментозное&lt;br&gt;лечение" style="edgeLabel;html=1;align=center;verticalAlign=middle;resizable=0;points=[];" parent="S4jkCtbscwq6oH9cz4Ta-6" vertex="1" connectable="0">
          <mxGeometry x="-0.2188" y="1" relative="1" as="geometry">
            <mxPoint x="17" y="-19" as="offset" />
          </mxGeometry>
        </mxCell>
        <mxCell id="oUw7xG58a5N2QfxFbJdh-1" value="D2 &amp;nbsp;&amp;nbsp;&amp;nbsp; Расписание" style="html=1;dashed=0;whiteSpace=wrap;shape=mxgraph.dfd.dataStoreID;align=left;spacingLeft=3;points=[[0,0],[0.5,0],[1,0],[0,0.5],[1,0.5],[0,1],[0.5,1],[1,1]];" vertex="1" parent="1">
          <mxGeometry x="90" y="-830" width="110" height="30" as="geometry" />
        </mxCell>
        <mxCell id="oUw7xG58a5N2QfxFbJdh-2" value="D3 &amp;nbsp;&amp;nbsp;&amp;nbsp; Результат анализов" style="html=1;dashed=0;whiteSpace=wrap;shape=mxgraph.dfd.dataStoreID;align=left;spacingLeft=3;points=[[0,0],[0.5,0],[1,0],[0,0.5],[1,0.5],[0,1],[0.5,1],[1,1]];" vertex="1" parent="1">
          <mxGeometry x="140" y="-520" width="150" height="30" as="geometry" />
        </mxCell>
        <mxCell id="oUw7xG58a5N2QfxFbJdh-3" value="" style="endArrow=classic;html=1;rounded=0;exitX=0;exitY=0.25;exitDx=0;exitDy=0;entryX=0.86;entryY=1.105;entryDx=0;entryDy=0;endFill=1;startArrow=classic;startFill=1;entryPerimeter=0;" edge="1" parent="1" source="TyFQIvKSNbhwDLeUT2OL-2" target="oUw7xG58a5N2QfxFbJdh-1">
          <mxGeometry width="50" height="50" relative="1" as="geometry">
            <mxPoint x="110" y="-760" as="sourcePoint" />
            <mxPoint x="-20" y="-836" as="targetPoint" />
            <Array as="points">
              <mxPoint x="185" y="-700" />
            </Array>
          </mxGeometry>
        </mxCell>
        <mxCell id="oUw7xG58a5N2QfxFbJdh-4" value="Расписание" style="edgeLabel;html=1;align=center;verticalAlign=middle;resizable=0;points=[];" vertex="1" connectable="0" parent="oUw7xG58a5N2QfxFbJdh-3">
          <mxGeometry x="0.2023" y="1" relative="1" as="geometry">
            <mxPoint x="-4" y="-45" as="offset" />
          </mxGeometry>
        </mxCell>
        <mxCell id="oUw7xG58a5N2QfxFbJdh-7" value="" style="endArrow=classic;html=1;rounded=0;exitX=0.173;exitY=1.004;exitDx=0;exitDy=0;entryX=0.3;entryY=-0.011;entryDx=0;entryDy=0;endFill=1;startArrow=classic;startFill=1;exitPerimeter=0;entryPerimeter=0;" edge="1" parent="1" source="TyFQIvKSNbhwDLeUT2OL-2" target="oUw7xG58a5N2QfxFbJdh-2">
          <mxGeometry width="50" height="50" relative="1" as="geometry">
            <mxPoint x="250" y="-538" as="sourcePoint" />
            <mxPoint x="120" y="-614" as="targetPoint" />
            <Array as="points">
              <mxPoint x="356" y="-610" />
              <mxPoint x="185" y="-610" />
            </Array>
          </mxGeometry>
        </mxCell>
        <mxCell id="oUw7xG58a5N2QfxFbJdh-8" value="Результат анализов" style="edgeLabel;html=1;align=center;verticalAlign=middle;resizable=0;points=[];" vertex="1" connectable="0" parent="oUw7xG58a5N2QfxFbJdh-7">
          <mxGeometry x="0.2023" y="1" relative="1" as="geometry">
            <mxPoint x="49" y="-5" as="offset" />
          </mxGeometry>
        </mxCell>
      </root>
    </mxGraphModel>
  </diagram>
</mxfile>
